<svg width="241" height="79" viewBox="0 0 241 79" fill="none" xmlns="http://www.w3.org/2000/svg">
<g id="gothaer">
<path id="path8" d="M240.187 21.362L235.477 30.9765C230.098 30.5878 226.635 28.2999 226.635 28.2999L223.084 35.1412V62.1881L211.976 64.571L211.977 29.0042L206.834 26.6762L211.317 17.5315L223.084 22.8232V25.6714C223.084 26.628 223.033 27.5783 223.033 27.5783C223.067 27.5972 223.506 26.5341 223.89 25.7477L227.896 17.5315C227.896 17.5315 233.323 20.8091 240.187 21.362Z" fill="#0D0D0D"/>
<path id="path10" d="M90.7839 27.3005H84.2864L88.2927 18.491H90.7839V15.1194L101.923 9.04297V18.4913H109.102L105.113 27.3009H101.924V51.741C104.299 53.6284 108.808 54.9491 108.808 54.901L104.055 64.5684C104.055 64.5684 95.6481 62.1098 90.7842 57.7771L90.7839 27.3005Z" fill="#0D0D0D"/>
<path id="path12" d="M140.282 73.0948L129.176 78.4609V29.8294L125.357 28.0251L122.594 33.2716V62.1093L111.487 64.5707L111.488 12.7915C111.488 9.60365 110.659 5.76638 110.659 5.76638L121.182 0.220703C121.182 0.220703 122.595 3.76805 122.594 9.42469L122.592 24.2565C122.592 25.4171 122.536 26.1438 122.536 26.1438C122.583 26.1583 123.004 25.123 123.395 24.3235L126.708 17.5312L140.281 23.6513V73.0948H140.282Z" fill="#0D0D0D"/>
<path id="path14" d="M27.6571 27.5983L37.9932 19.7987C44.187 21.1803 51.0293 29.3077 51.0293 38.9388C51.0293 48.5187 49.1968 53.1593 49.1968 53.1593L34.3865 64.2151C34.3865 64.2151 31.3106 64.5711 27.4294 64.5711C6.57151 64.5708 0.1875 49.3663 0.1875 37.6288C0.1875 30.1316 2.36735 26.4553 2.36735 26.4553L13.2066 18.5854L12.1797 14.913L29.0785 2.37207C38.276 6.46847 50.2256 8.14545 50.2256 8.14545L38.6198 16.7837C38.6198 16.7837 30.7808 15.464 24.1697 12.2159C23.6059 11.9356 23.0459 11.6078 23.0459 11.6078C23.0136 11.6325 23.221 12.2505 23.4 12.8711L27.6571 27.5983ZM14.2493 22.2341C14.2493 22.2341 14.0401 22.9031 13.6559 23.8944C13.0171 25.6692 12.1082 28.8863 12.1082 32.8332C12.1082 49.196 21.6018 56.5322 33.5584 56.5322C36.3637 56.5322 37.5346 56.0159 37.5346 56.0159C37.5346 56.0159 39.2042 51.0661 39.2042 44.5034C39.2042 34.7148 35.118 30.2772 32.4356 29.2968L28.8674 31.8393L32.4356 44.7385L22.4828 52.0651L14.6675 23.8358C14.4391 23 14.3233 22.2428 14.3233 22.2428L14.2493 22.2341Z" fill="#0D0D0D"/>
<path id="path16" d="M204.582 54.9866L199.885 64.571C199.885 64.571 187.476 61.9643 179.541 55.6954V23.5929L199.594 17.5315L208.592 40.0679L190.648 45.4513V49.9008C196.107 53.4623 204.582 54.9866 204.582 54.9866ZM196.633 38.9214L191.939 27.2217C191.207 25.4065 190.624 23.6881 190.624 23.6881C190.57 23.7038 190.647 25.538 190.647 27.5854V40.7158L196.633 38.9214Z" fill="#0D0D0D"/>
<path id="path18" d="M158.644 64.1711C158.644 64.1711 151.131 62.1504 145.975 58.2143V26.5835L158.156 17.5312L173.844 24.6179V62.1462L162.942 64.5711V57.3535C162.942 56.7516 162.989 55.4318 162.989 55.4318C162.989 55.4318 162.449 56.6066 162.152 57.2022L158.644 64.1711ZM162.957 54.4678V30.6854L157.095 28.0328V51.9948C159.64 53.9726 162.957 54.4678 162.957 54.4678Z" fill="#0D0D0D"/>
<path id="path20" d="M83.2155 54.3094L69.4276 64.5707C69.4276 64.5707 60.8882 62.4611 55.3473 58.2056V26.5835L67.5284 17.5312L83.2155 24.6179V54.3094ZM72.315 54.853V30.6854L66.4534 28.0328V52.379C66.4534 52.379 68.5807 54.0878 72.315 54.853Z" fill="#0D0D0D"/>
</g>
</svg>
