<svg width="241" height="76" viewBox="0 0 241 76" fill="none" xmlns="http://www.w3.org/2000/svg">
<g id="luxair">
<g id="layer1">
<g id="g6953">
<g id="g3005">
<path id="path3007" d="M72.8304 67.0847C71.248 67.192 67.7437 67.3885 65.4863 67.3982C63.207 67.3982 61.1146 67.3212 60.2485 67.2332C56.3785 66.829 55.0835 65.2783 55.0835 61.3423V38.6174C55.0835 36.5346 54.7013 35.8472 52.2968 35.8472H44.3121V63.4223C44.3121 71.3809 46.333 74.6528 60.3433 74.6528C71.1738 74.6528 75.2926 74.107 75.2926 74.107C75.2926 74.107 75.3173 70.3663 75.3173 68.9283C75.3173 67.0242 75.1111 66.9266 72.8304 67.0847ZM150.795 43.3012H140.905C140.037 43.3012 139.388 43.5913 138.905 44.3433L133.885 51.7904H133.687L128.833 44.3433C128.359 43.6078 127.743 43.3012 126.874 43.3012H115.961L126.818 58.3838L114.709 73.9283H124.634C125.562 73.9283 126.244 73.5008 126.643 72.8835L132.664 63.8939H132.911L138.55 72.5398C139.145 73.575 139.816 73.9283 140.781 73.9283H151.985L139.707 57.7569L150.795 43.3012ZM108.36 43.3012H100.177V67.8931C98.6692 68.4389 96.0571 68.6052 94.3001 68.6052C90.3106 68.6052 88.5508 67.1012 88.5508 64.584V44.9262C88.5508 44.0257 87.8373 43.3012 86.9492 43.3012H78.7597V63.9544C78.7597 71.3671 84.01 74.6226 94.494 74.6226C100.819 74.6226 106.933 73.5888 109.973 72.2209V44.9262C109.973 44.0257 109.252 43.3012 108.36 43.3012ZM202.376 33.4922H194.794V40.1337H204.595V35.8005C204.595 33.7356 204.251 33.4922 202.376 33.4922ZM238.549 43.1431C236.207 42.8269 232.983 42.607 229.271 42.607C223.858 42.6303 217.998 43.1129 214.381 44.4271V73.9283H224.172V53.1102C224.172 51.0824 225.327 49.6293 227.312 49.3227C228.695 49.111 230.724 49.0203 232.062 49.034C234.803 49.0642 237.396 49.3131 238.766 49.7076C238.766 49.7076 239.006 49.7613 239.136 49.654L239.235 49.3571V43.9144C239.235 43.4194 239.087 43.2201 238.549 43.1431ZM202.376 43.3012H194.794V73.9283H204.595V45.7675C204.595 43.8099 204.107 43.3012 202.376 43.3012ZM170.523 42.6248C166.447 42.6248 161.397 43.2778 157.727 44.4808C157.588 44.5248 157.546 44.6292 157.546 44.7805V49.8864C157.546 50.637 157.81 50.9917 158.282 50.9944C158.58 51.0013 158.945 50.8198 159.423 50.6177C162.398 49.3227 165.7 48.7068 169.723 48.7068C174.635 48.7068 175.222 49.5014 175.222 51.1525C175.222 52.5314 175.127 52.5685 173.145 53.1033C168.646 54.3846 163.369 55.5573 159.127 57.9164C156.168 59.5606 155.101 62.4847 155.101 65.5958C155.101 72.3515 159.235 74.6267 168.406 74.6267C176.114 74.6267 181.694 73.6383 185.014 72.2979V51.8275C185.014 44.1439 177.432 42.6248 170.523 42.6248ZM175.222 64.6514C175.222 67.203 174.694 69.1565 170.156 69.1565C166.437 69.1565 165.088 67.6979 165.088 64.6253C165.088 62.6126 166.26 61.4275 169.313 60.2342C171.269 59.4451 173.211 58.7715 175.222 58.047V64.6514Z" fill="#0D0D0D"/>
</g>
<g id="g3009">
<path id="path3011" d="M25.5385 6.06966L6.60934 28.8386C6.41413 29.0544 6.33989 29.3101 6.42925 29.5095C6.51861 29.7253 6.71245 29.8559 6.98466 29.8559L36.2356 29.8628C36.4968 29.8628 36.6824 29.6373 36.6824 29.3912C36.6824 29.1355 36.5614 28.9829 36.303 28.9225C35.2499 28.6764 29.5061 27.4336 25.3791 26.1825C22.822 25.4085 21.8212 23.2117 22.4893 20.2793C23.2234 17.0279 26.3442 6.58519 26.3538 6.55495C26.428 6.33911 26.3799 6.06966 26.1544 5.96242C25.9056 5.83045 25.687 5.89094 25.5385 6.06966Z" fill="#0D0D0D"/>
</g>
<g id="g3013">
<path id="path3015" d="M21.7559 1.57126C33.0827 1.57126 42.2977 10.7946 42.2977 22.2038C42.2977 33.5127 33.0827 42.7456 21.7559 42.7456C10.3577 42.7456 1.13989 33.5127 1.13989 22.2038C1.13989 10.7946 10.3577 1.57126 21.7559 1.57126ZM21.7559 4.08159C11.7586 4.08159 3.65297 12.1859 3.65297 22.2038C3.65297 32.1887 11.7586 40.2958 21.7559 40.2958C31.7519 40.2958 39.8616 32.1887 39.8616 22.2038C39.8616 12.1185 31.7519 4.08159 21.7559 4.08159Z" fill="#0D0D0D"/>
</g>
</g>
</g>
</g>
</svg>
