<svg width="241" height="120" viewBox="0 0 241 120" fill="none" xmlns="http://www.w3.org/2000/svg">
<g id="waz" clip-path="url(#clip0_447_1710)">
<g id="g2818">
<path id="path2822" d="M25.5578 78.2061C25.6478 77.8476 26.4549 75.5485 27.3513 73.0969C28.2477 70.6454 29.5883 66.9549 30.3305 64.8958L31.6799 61.1521L30.5642 58.054C29.9506 56.3501 28.5489 52.5016 27.4493 49.5019C26.3498 46.5022 25.4502 43.8825 25.4502 43.6804C25.4502 43.3718 25.8894 43.3128 28.1848 43.3128H30.9193L31.9417 46.1335C32.5039 47.685 33.9326 51.601 35.1165 54.8359C36.3004 58.0707 37.268 60.9335 37.2668 61.1976C37.2648 61.6159 36.3469 64.2057 31.9487 76.2016L31.0246 78.7222L28.2094 78.7901L25.3942 78.858L25.5578 78.2061ZM33.8525 78.6186C33.8525 78.4955 34.188 77.4963 34.598 76.398C35.4288 74.1727 38.898 64.6055 39.6545 62.4532L40.1414 61.0681L39.1297 58.3721C38.5733 56.8893 37.6017 54.2177 36.9707 52.4352C36.3396 50.6527 35.3798 48.0184 34.8379 46.5811C34.2959 45.1438 33.8525 43.817 33.8525 43.6327C33.8525 43.3612 34.383 43.3104 36.6463 43.3652L39.44 43.4328L41.3496 48.7142C42.3998 51.619 43.8364 55.6113 44.5419 57.5861L45.8247 61.1766L44.259 65.5082C43.3979 67.8906 42.0089 71.754 41.1724 74.0935C40.3359 76.4331 39.5827 78.4586 39.4986 78.5947C39.3053 78.9074 33.8525 78.9305 33.8525 78.6186ZM42.374 78.4222C42.4679 78.1911 43.1317 76.3816 43.8492 74.4011C44.5667 72.4206 45.9173 68.7476 46.8507 66.2389C47.784 63.7302 48.5496 61.4614 48.552 61.1969C48.5544 60.9325 47.9534 59.096 47.2164 57.1159C45.6936 53.0244 42.2547 43.513 42.2547 43.3925C42.2547 43.3487 43.4932 43.3128 45.007 43.3128C48.2241 43.3128 47.7759 42.909 49.3096 47.1897C49.8939 48.8204 51.2565 52.5853 52.3376 55.5561C54.1017 60.4038 54.279 61.0436 54.0671 61.7977C53.8119 62.7055 51.496 69.1953 48.3488 77.822L47.9765 78.8423H45.0899C42.4358 78.8423 42.2171 78.8084 42.374 78.4222ZM50.4169 78.7566C50.4169 78.6311 52.8056 72.0205 54.8903 66.3765C56.1052 63.0875 56.6605 61.2673 56.5768 60.8487C56.5081 60.5055 55.5999 57.9049 54.5584 55.0696C51.779 47.5028 50.4169 43.6951 50.4169 43.4923C50.4169 43.3936 51.6615 43.3128 53.1828 43.3128C55.8236 43.3128 55.9589 43.3372 56.1761 43.8529C56.4606 44.5285 58.58 50.3727 60.7684 56.5163L62.436 61.1976L61.31 64.3184C60.6907 66.0348 59.2828 69.8935 58.1812 72.8932C57.0797 75.8929 56.1784 78.4586 56.1784 78.5947C56.1784 78.751 55.1161 78.8423 53.2976 78.8423C51.7132 78.8423 50.4169 78.8037 50.4169 78.7566ZM9.42742 37.1332C9.00099 35.4486 7.62518 30.1273 6.37006 25.308C5.11493 20.4887 3.27928 13.4128 2.29082 9.58379C1.30236 5.75477 0.424748 2.37887 0.340563 2.08179L0.1875 1.54165H9.93809C15.3009 1.54165 19.6887 1.59431 19.6887 1.65868C19.6887 1.72305 19.9593 2.81708 20.2899 4.08986C20.7546 5.87802 22.9145 15.7639 24.1574 21.7908C24.3614 22.7798 24.6171 22.3262 25.0843 20.1466C25.3107 19.0903 26.3511 14.6071 27.3963 10.184C28.4415 5.76077 29.3515 1.89874 29.4185 1.60166L29.5405 1.06152H42.6253H55.7102L55.9347 1.65195C56.1524 2.22465 58.8498 15.6603 59.6718 20.2666C59.8956 21.521 60.1528 22.686 60.2433 22.8556C60.3904 23.1313 62.2328 16.4785 65.1486 5.14261L66.1674 1.18155L73.5362 1.11807C77.5891 1.08315 80.905 1.13627 80.905 1.23612C80.905 1.33597 79.8745 5.57766 78.615 10.6621C77.3555 15.7465 75.2415 24.2817 73.9172 29.6291C72.5929 34.9766 71.4556 39.5408 71.3898 39.7718C71.2778 40.1649 70.4827 40.192 59.0523 40.192H46.8344L46.591 39.2878C46.457 38.7905 45.8551 36.2248 45.2534 33.5863C43.1566 24.3924 41.9601 19.6642 41.6466 19.3332C41.3815 19.0533 41.2938 19.1496 41.1001 19.9333C40.553 22.1461 37.176 36.4014 36.7843 38.1514L36.3544 40.0719L23.2786 40.134L10.2027 40.196L9.42742 37.1332ZM75.9746 38.6916C76.2879 37.8663 76.8926 36.3809 77.3184 35.3907C77.7442 34.4004 78.8939 31.6457 79.8734 29.269C81.6054 25.0666 83.0989 21.4577 87.6228 10.544C88.8269 7.63927 90.2032 4.31739 90.6812 3.16208L91.5503 1.06152H103.978C111.963 1.06152 116.459 1.14692 116.554 1.30038C116.698 1.53345 119.746 10.1747 122.313 17.6259C123.7 21.6534 127.237 31.7105 129.014 36.6798C129.621 38.3791 130.118 39.8645 130.118 39.9807C130.118 40.0994 125.129 40.192 118.734 40.192H107.349L106.598 37.7313C106.184 36.3779 105.762 35.0006 105.659 34.6705L105.472 34.0703L99.0805 34.0064C93.1763 33.9474 92.6725 33.9748 92.47 34.3665C92.3495 34.5997 91.8986 36.0058 91.4681 37.4912L90.6854 40.192H83.0452H75.4051L75.9746 38.6916ZM102.997 27.0485C103.009 26.7108 99.5104 15.9561 99.3899 15.9602C99.3023 15.9632 95.5889 25.0383 94.8687 27.0095C94.8225 27.136 96.5199 27.2285 98.8898 27.2285C101.145 27.2285 102.994 27.1475 102.997 27.0485ZM132.039 40.0848C132.039 39.9545 134.038 34.8874 135.643 30.9495C138.293 24.449 141.043 17.5874 142.005 15.0805C142.567 13.6144 143.147 12.1901 143.294 11.9154C143.441 11.6406 143.562 11.3547 143.562 11.28C143.562 11.2053 140.483 11.1442 136.72 11.1442H129.878V5.97774V0.811279L139.181 0.821286C155.146 0.838459 172.85 1.12418 172.85 1.36466C172.85 1.60254 170.405 7.8771 163.493 25.3779C162.566 27.7269 161.807 29.6985 161.807 29.759C161.807 29.8196 164.651 29.8692 168.128 29.8692C171.605 29.8692 174.495 29.914 174.55 29.9688C174.605 30.0235 174.619 32.3461 174.581 35.1301L174.511 40.192H153.275C141.595 40.192 132.039 40.1438 132.039 40.0848Z" fill="#0D0D0D"/>
<path id="path2820" d="M16.9912 118.925C13.6535 118.363 10.9596 116.983 8.62681 114.639C5.85884 111.858 4.27034 108.129 3.87106 103.475C3.08593 94.3223 6.63863 87.2976 13.6124 84.2134C15.8842 83.2087 18.047 82.851 21.8493 82.851C25.4507 82.851 27.3832 83.1431 30.4316 84.1482L31.932 84.6429V86.7839C31.932 87.9614 31.8729 88.9249 31.8007 88.9249C31.7284 88.9249 30.8636 88.4827 29.8789 87.9422C25.4707 85.5229 20.6314 85.1552 16.808 86.9491C14.0259 88.2545 11.5273 91.7362 10.6525 95.5266C10.0012 98.3488 10.0632 104.635 10.7681 107.245C12.1462 112.348 15.3602 115.487 19.8718 116.137C21.97 116.44 24.2013 116.126 25.883 115.291L27.0107 114.732V106.99V99.2473L30.0115 99.2476L33.0123 99.2478L32.9739 108.07L32.9354 116.892L29.7417 117.796C27.9851 118.292 25.8958 118.805 25.0989 118.934C23.4122 119.208 18.6395 119.203 16.9912 118.925ZM77.064 118.798C72.4123 117.796 69.0854 114.622 68.0628 110.213C67.7766 108.979 67.7073 106.282 67.697 95.987L67.6843 83.2834L70.7537 83.2168L73.8232 83.1503V96.5456V109.941L74.6122 111.543C75.5577 113.464 77.0396 114.855 78.9492 115.616C80.8409 116.369 85.4462 116.39 87.2893 115.655C90.1108 114.528 91.7137 112.797 92.5887 109.93C92.991 108.612 93.0283 107.417 93.0283 95.8267V83.1634H94.4234H95.8184L95.7324 96.4269C95.6398 110.685 95.6449 110.625 94.3335 113.2C93.5187 114.799 91.5299 116.718 89.8609 117.515C86.6857 119.03 80.8532 119.615 77.064 118.798ZM39.9741 100.907V83.1203L46.6959 83.2137C52.9157 83.3001 53.5317 83.3474 54.9435 83.8465C59.5504 85.4751 61.8859 88.8036 61.6491 93.4032C61.4267 97.724 59.0061 100.348 54.1379 101.546C53.2137 101.774 52.4205 101.99 52.3753 102.026C52.2763 102.106 63.6626 117.092 64.5369 118.033L65.1507 118.693L61.3247 118.689L57.4988 118.686L56.8987 117.612C56.5686 117.021 54.0299 113.413 51.2572 109.594L46.2158 102.65L46.1526 110.671L46.0894 118.693H43.0318H39.9741V100.907ZM50.8429 99.8416C53.5923 99.0252 55.3722 96.7667 55.6229 93.7765C55.8902 90.5883 54.5588 87.9353 52.0655 86.688C50.8855 86.0977 50.4119 86.0061 48.3446 85.9679L45.9758 85.9241L45.9122 93.066L45.8486 100.208H47.7291C48.7634 100.208 50.1646 100.043 50.8429 99.8416ZM103.231 100.904V83.1159L110.373 83.2189C116.763 83.3111 117.672 83.3739 119.007 83.815C124.098 85.4977 126.631 89.5877 125.8 94.7869C125.137 98.937 122.413 101.656 117.71 102.861C116.545 103.16 114.579 103.399 112.518 103.493L109.202 103.645L109.277 111.169L109.353 118.693L106.292 118.693L103.231 118.693V100.904ZM115.141 100.333C116.735 99.86 118.177 98.5772 119.001 96.9008C119.604 95.6727 119.675 95.2716 119.675 93.126C119.675 90.9879 119.603 90.577 119.009 89.369C117.769 86.8431 116.076 86.0441 111.963 86.0441H109.233V93.3661V100.688H111.59C112.97 100.688 114.442 100.541 115.141 100.333ZM130.541 100.904L130.604 83.1159L137.743 83.2189C144.13 83.3111 145.039 83.3739 146.374 83.815C151.686 85.5704 154.201 89.9587 153.049 95.462C152.638 97.4276 152.286 98.1176 150.916 99.6413C148.738 102.064 145.36 103.243 139.883 103.493L136.564 103.645L136.642 111.169L136.72 118.693L133.599 118.693L130.478 118.693L130.541 100.904ZM142.572 100.314C144.176 99.8381 145.521 98.6258 146.375 96.8855C146.97 95.6747 147.043 95.2652 147.043 93.126C147.043 90.9771 146.972 90.5804 146.364 89.343C145.123 86.8155 143.478 86.0441 139.33 86.0441H136.6V93.3661V100.688H138.957C140.391 100.688 141.807 100.542 142.572 100.314ZM157.966 100.928V83.1634H167.088H176.21V84.6037V86.0441H170.209H164.207V92.6459V99.2476H170.209H176.21V100.568V101.888H170.209H164.207V108.869V115.849L170.209 115.771L176.211 115.692L176.211 117.192L176.21 118.693H167.088H157.966V100.928ZM67.3116 78.7556C67.3898 78.444 67.7299 76.3644 68.0673 74.1344C68.4048 71.9044 69.2205 66.731 69.88 62.6379C71.7499 51.0336 72.5028 45.9574 72.5028 44.9556V44.0329L75.2035 44.0376L77.9043 44.0422L79.0321 47.5785C79.6524 49.5235 81.5801 55.2199 83.3158 60.2373C85.0516 65.2546 86.6997 70.0349 86.9782 70.8601C87.2568 71.6853 87.5487 72.3605 87.6269 72.3605C87.7051 72.3605 87.9973 71.6853 88.2763 70.8601C88.5553 70.0349 90.0406 65.7407 91.5769 61.3175C95.7242 49.3773 97.2294 44.8814 97.2294 44.4341C97.2294 44.0828 97.5684 44.0329 99.957 44.0329H102.685L102.843 45.7734C102.93 46.7306 103.321 49.6744 103.713 52.3151C104.104 54.9558 105.131 62.0209 105.996 68.0153C106.861 74.0096 107.625 79.006 107.694 79.1182C107.764 79.2305 106.435 79.3223 104.742 79.3223H101.664L100.412 70.5C99.7237 65.6477 98.8669 59.4895 98.5081 56.8152C98.1494 54.1408 97.7788 52.0343 97.6846 52.1339C97.5904 52.2336 96.6271 54.9078 95.544 58.0767C91.8547 68.8702 89.1199 76.8003 88.8532 77.4775C88.7069 77.8491 88.5871 78.4163 88.5871 78.7378C88.5871 79.3192 88.574 79.3223 86.1198 79.3223H83.6525L82.7825 76.7416C82.304 75.3223 81.0469 71.6763 79.989 68.6395C78.9311 65.6027 77.2849 60.8494 76.3308 58.0767C75.3768 55.3039 74.5238 52.9532 74.4354 52.8529C74.2623 52.6566 73.6969 55.9598 71.6507 69.1196C70.9322 73.7408 70.3439 77.927 70.3433 78.4221L70.3422 79.3223H68.7558C67.2085 79.3223 67.1729 79.3084 67.3116 78.7556ZM113.194 61.6776V44.0329H122.376H131.559L131.559 45.4133L131.559 46.7937L125.313 46.7189L119.068 46.6441L119.131 53.3206L119.195 59.9972L125.317 60.0377L131.439 60.0781V61.358V62.6379L125.257 62.7019L119.075 62.766V69.6112V76.4563L125.257 76.4324L131.439 76.4085L131.51 77.8654L131.581 79.3223H122.388H113.194V61.6776ZM137.8 61.6547V43.9871L145.302 44.0981C151.993 44.1972 153.009 44.2646 154.695 44.7212C158.109 45.6457 161.228 47.5753 163.069 49.902C165.878 53.4529 167.283 59.0591 166.625 64.0894C166.267 66.8239 165.052 70.4097 163.889 72.1615C162.678 73.9865 160.035 76.4404 158.141 77.4999C155.233 79.1259 153.852 79.3223 145.324 79.3223H137.8V61.6547ZM150.184 76.2057C152.957 75.8452 154.516 75.1313 156.196 73.4536C157.837 71.8136 158.895 69.9301 159.664 67.278C160.371 64.8424 160.559 59.7344 160.034 57.259C158.998 52.3821 155.983 48.9157 151.614 47.581C150.287 47.1757 149.277 47.0612 146.923 47.0491L143.922 47.0337L143.86 61.4376C143.825 69.3597 143.849 75.9764 143.912 76.1415C144.051 76.504 147.608 76.5405 150.184 76.2057ZM172.97 61.6776V44.0329H176.09H179.211V61.6776V79.3223H176.09H172.97V61.6776ZM187.373 61.6776V44.0329L196.436 44.0329L205.498 44.0329L205.498 45.4133L205.499 46.7937L199.377 46.7221L193.255 46.6505V53.3954V60.1403L199.377 60.0687L205.499 59.9972L205.498 61.3775L205.498 62.7579H199.377H193.255V69.6076V76.4574L199.377 76.3894L205.499 76.3215L205.498 77.8219L205.498 79.3223L196.436 79.3223L187.373 79.3223V61.6776ZM211.86 61.6776V44.0329H214.642C217.294 44.0329 217.436 44.0582 217.671 44.5731C217.807 44.8701 219.627 47.4898 221.715 50.3946C223.804 53.2994 226.168 56.6031 226.968 57.7362C232.359 65.3638 237.095 71.8741 237.256 71.877C237.36 71.8789 237.414 65.6146 237.376 57.9565L237.307 44.0328L238.747 44.0328L240.188 44.0329V61.6776V79.3223H237.615C235.298 79.3223 235.018 79.2752 234.789 78.8475C234.58 78.4572 227.789 68.9167 222.14 61.0775C221.427 60.0872 219.524 57.4177 217.912 55.1452C216.3 52.8727 214.896 51.0092 214.792 51.0041C214.688 50.9989 214.634 57.3685 214.672 65.1586L214.741 79.3225L213.3 79.3224L211.86 79.3223V61.6776Z" fill="#0D0D0D"/>
</g>
</g>
<defs>
<clipPath id="clip0_447_1710">
<rect width="240" height="118.357" fill="white" transform="translate(0.1875 0.811279)"/>
</clipPath>
</defs>
</svg>
