<?xml version="1.0" encoding="utf-8"?>
<!-- Generator: Adobe Illustrator 23.0.2, SVG Export Plug-In . SVG Version: 6.00 Build 0)  -->
<svg version="1.1" id="Ebene_1" xmlns="http://www.w3.org/2000/svg" xmlns:xlink="http://www.w3.org/1999/xlink" x="0px" y="0px"
	 viewBox="0 0 699 181" style="enable-background:new 0 0 699 181;" xml:space="preserve">
<style type="text/css">
	.st0{fill-rule:evenodd;clip-rule:evenodd;fill:url(#Combined-Shape_1_);}
</style>
<g id="Page_1">
	<g id="Stuff" transform="translate(-332.000000, -1213.000000)">
		<g transform="translate(332.000000, 1213.000000)">
			
				<linearGradient id="Combined-Shape_1_" gradientUnits="userSpaceOnUse" x1="-332.5254" y1="472.8886" x2="-331.5254" y2="472.8216" gradientTransform="matrix(699 0 0 -181 232434 85682)">
				<stop  offset="0" style="stop-color:#6BD5B5"/>
				<stop  offset="1" style="stop-color:#02ADD8"/>
			</linearGradient>
			<path id="Combined-Shape" class="st0" d="M217.3,71.9c0-4.3,2.6-7.1,6.7-7.1c4.1,0,6.7,2.9,6.7,7.1v50.6c0,4.3-2.6,7.1-6.7,7.1
				c-4.1,0-6.7-2.9-6.7-7.1V71.9z M242.1,83.7c0-13.8,12.8-18.9,24.8-18.9c11,0,24.1,6.2,24.1,14.4c0,3.5-3,5.6-6.5,5.6
				c-6.6,0-5.4-9.2-18.6-9.2c-6.6,0-10.2,3-10.2,7.3c0,4.3,5.2,5.7,9.7,6.7l11.8,2.7c12.9,2.9,16.2,10.6,16.2,17.8
				c0,11.2-8.5,19.5-25.5,19.5c-18,0-26-8.9-26-15.6c0-3.4,2.5-5.8,6-5.8c7.7,0,5.7,11.2,20,11.2c7.3,0,11.4-4,11.4-8.2
				c0-2.5-1.2-5.2-6-6.4l-16-4C244.5,97.4,242.1,90.3,242.1,83.7z M344.4,71.9c0-4.2,2.7-7.1,7-7.1c4.3,0,7,2.9,7,7.1v32.9
				c0,17.1-10.5,24.8-26.9,24.8c-16.4,0-26.9-7.7-26.9-24.8V71.9c0-4.2,2.7-7.1,7-7.1c4.3,0,7,2.9,7,7.1v34
				c0,8.5,4.7,12.3,12.8,12.3c8.1,0,12.8-3.8,12.8-12.3V71.9z M430.2,71.8c0-4.2,2.7-7,7-7c4.3,0,7,2.8,7,7v43.8h23.5
				c4,0,7.3,2,7.3,5.9c0,3.8-3.3,5.9-7.3,5.9h-29.3c-5,0-8.2-2-8.2-8.2V71.8z M197.3,68.9c1.3-2.6,3.4-4.1,5.9-4.1
				c1.1,0,2.2,0.3,3.4,0.9c3.8,1.9,5,5.7,3.2,9.5l-24.2,50.4c-0.1,0.1-0.1,0.2-0.2,0.3c0,0-0.1,0.1-0.1,0.1
				c-1.3,2.4-3.5,3.7-5.9,3.6c0,0-0.1,0-0.1,0c0,0-0.1,0-0.1,0c0,0-0.1,0-0.1,0c0,0-0.1,0-0.1,0c-2.4,0.1-4.5-1.2-5.9-3.6
				c0,0-0.1-0.1-0.1-0.1c-0.1-0.1-0.1-0.2-0.2-0.3l-24.2-50.4c-1.8-3.8-0.6-7.6,3.2-9.5c3.8-1.9,7.4-0.6,9.3,3.2l18.1,37.7
				L197.3,68.9z M541.5,64.8h33.2c4.1,0,7.2,1.2,7.2,5.7c0,4.5-3,5.7-7.2,5.7h-27.3v13.6h24c3.7,0,6.6,1,6.6,5.5
				c0,4.4-2.9,5.5-6.6,5.5h-24v15.1h28c4.1,0,7.2,1.2,7.2,5.7c0,4.5-3,5.7-7.2,5.7h-33.9c-5,0-8.3-2-8.3-8.3V73.1
				C533.2,66.8,536.5,64.8,541.5,64.8z M589.4,83.7c0-13.8,12.8-18.9,24.8-18.9c11,0,24.1,6.2,24.1,14.4c0,3.5-3,5.6-6.5,5.6
				c-6.6,0-5.4-9.2-18.6-9.2c-6.6,0-10.2,3-10.2,7.3c0,4.3,5.2,5.7,9.7,6.7l11.8,2.7c12.9,2.9,16.2,10.6,16.2,17.8
				c0,11.2-8.5,19.5-25.5,19.5c-18,0-26-8.9-26-15.6c0-3.4,2.5-5.8,6-5.8c7.7,0,5.7,11.2,20,11.2c7.3,0,11.4-4,11.4-8.2
				c0-2.5-1.2-5.2-6-6.4l-16-4C591.7,97.4,589.4,90.3,589.4,83.7z M650.4,67h41.2c4.1,0,7.4,2,7.4,5.9c0,3.8-3.3,5.9-7.4,5.9h-13.5
				v43.8c0,4.2-2.8,7-7.1,7c-4.3,0-7.1-2.8-7.1-7V78.8h-13.5c-4.1,0-7.4-2-7.4-5.9C643,69.1,646.3,67,650.4,67z M513.2,68.9
				c1.3-2.6,3.4-4.1,5.9-4.1c1.1,0,2.2,0.3,3.4,0.9c3.8,1.9,5,5.7,3.2,9.5l-24.2,50.4c-0.1,0.1-0.1,0.2-0.2,0.3c0,0-0.1,0.1-0.1,0.1
				c-1.3,2.4-3.5,3.7-5.9,3.6c0,0-0.1,0-0.1,0c0,0-0.1,0-0.1,0c0,0-0.1,0-0.1,0c0,0-0.1,0-0.1,0c-2.4,0.1-4.5-1.2-5.9-3.6
				c0,0-0.1-0.1-0.1-0.1c-0.1-0.1-0.1-0.2-0.2-0.3l-24.2-50.4c-1.8-3.8-0.6-7.6,3.2-9.5c3.8-1.9,7.4-0.6,9.3,3.2l18.1,37.7
				L513.2,68.9z M386,69.5c1.5-2.8,4.4-4.7,7.7-4.7c3.9,0,7.2,2.6,8.3,6.2c0.2,0.4,0.4,0.9,0.6,1.5l17.1,45.4
				c0.5,1.4,1.4,3.9,1.4,5.5c0,3.5-3,6.2-6.6,6.2c-3.1,0-5.4-1.1-6.4-3.9l-3.6-10.4h-22.8l-3.7,10.4c-0.9,2.8-2.9,3.9-6.3,3.9
				c-3.9,0-6.6-2.4-6.6-6.2c0-1.6,0.9-4.1,1.4-5.5l18.3-46.3C385.2,70.8,385.6,70.1,386,69.5z M393.2,84l-8.4,21.4h16.6l-8-21.4
				H393.2z M82.9,7.3C85.1,2.7,89.7,0,94.6,0c1.9,0,3.9,0.4,5.7,1.3c6.4,3.1,9.1,10.9,6,17.3L49.8,133.6c-0.1,0.1-0.2,0.2-0.2,0.3
				c-0.2,0.4-0.5,0.8-0.8,1.2c-0.2,0.3-0.4,0.6-0.7,0.9c-0.3,0.3-0.6,0.6-0.9,0.9c-0.3,0.3-0.6,0.6-0.9,0.9c-0.3,0.3-0.6,0.5-1,0.7
				c-0.4,0.3-0.8,0.5-1.2,0.7c-0.3,0.2-0.7,0.3-1.1,0.5c-0.4,0.2-0.8,0.3-1.3,0.5c-0.4,0.1-0.8,0.2-1.2,0.3
				c-0.4,0.1-0.8,0.2-1.2,0.2c-0.4,0-0.8,0.1-1.3,0.1s-0.8,0-1.3-0.1c-0.4,0-0.8-0.1-1.2-0.2c-0.4-0.1-0.8-0.2-1.2-0.3
				c-0.4-0.1-0.9-0.3-1.3-0.5c-0.4-0.2-0.7-0.3-1.1-0.5c-0.4-0.2-0.8-0.5-1.2-0.7c-0.3-0.2-0.7-0.4-1-0.7c-0.3-0.3-0.6-0.6-0.9-0.9
				c-0.3-0.3-0.6-0.6-0.9-0.9c-0.2-0.3-0.5-0.6-0.7-0.9c-0.3-0.4-0.5-0.8-0.8-1.2c-0.1-0.1-0.2-0.2-0.2-0.3L1.3,82.4
				C0.4,80.6,0,78.7,0,76.8v-0.2c0-4.8,2.7-9.3,7.3-11.6c6.4-3.1,14.2-0.5,17.4,5.9l13.4,27.4L82.9,7.3z M89.8,72.1
				c2.2-4.6,6.8-7.3,11.6-7.3c1.9,0,3.8,0.4,5.6,1.3c6.4,3.2,9,10.9,5.9,17.4l-43.7,90.2c-2.2,4.6-6.8,7.3-11.5,7.3h0
				c-1.9,0-3.8-0.4-5.6-1.3c-6.4-3.2-9-10.9-5.9-17.4L89.8,72.1z"/>
		</g>
	</g>
</g>
</svg>
