<?xml version="1.0" encoding="UTF-8" standalone="no"?>
<!-- Created with Inkscape (http://www.inkscape.org/) -->

<svg
   xmlns:svg="http://www.w3.org/2000/svg"
   xmlns="http://www.w3.org/2000/svg"
   version="1.1"
   width="462.86462"
   height="228.26309"
   id="svg2">
  <title
     id="title2824">WAZ Mediengruppe</title>
  <defs
     id="defs6" />
  <g
     transform="matrix(0.46298811,0,0,0.46298811,0.10799787,0.01962755)"
     id="g2818">
    <path
       d="m 105.44824,322.35021 c 0.37482,-1.49341 3.73662,-11.07065 7.47067,-21.28275 3.73405,-10.2121 9.31866,-25.58502 12.41025,-34.16205 l 5.62106,-15.59458 -4.64764,-12.90542 c -2.5562,-7.09797 -8.395,-23.1289 -12.97511,-35.62429 C 108.74736,190.28574 105,179.37324 105,178.53112 105,177.2459 106.82941,177 116.39095,177 l 11.39094,0 4.25858,11.75 c 2.34222,6.4625 8.29347,22.775 13.225,36.25 4.93153,13.475 8.96218,25.4 8.957,26.5 -0.008,1.74265 -3.83192,12.53066 -22.15254,62.5 l -3.84969,10.5 -11.72675,0.28274 -11.72674,0.28275 0.68149,-2.71528 z M 140,324.06822 c 0,-0.51248 1.39754,-4.67498 3.10564,-9.25 3.46083,-9.26956 17.91173,-49.12209 21.06319,-58.08781 l 2.02801,-5.76958 -4.21409,-11.23042 C 159.66501,233.55369 155.61787,222.425 152.98911,215 c -2.62875,-7.425 -6.6267,-18.39852 -8.88433,-24.38561 C 141.84715,184.62731 140,179.10053 140,178.33266 c 0,-1.131 2.21004,-1.34263 11.6377,-1.1144 l 11.6377,0.28174 7.95422,22 c 4.37482,12.1 10.35882,28.73034 13.29778,36.9563 l 5.34357,14.95631 -6.522,18.04369 c -3.5871,9.92404 -9.37286,26.01721 -12.85725,35.76261 -3.48439,9.7454 -6.62202,18.1829 -6.97251,18.75 C 162.71418,325.27149 140,325.36739 140,324.06822 z M 175.49709,323.25 c 0.39108,-0.9625 3.15628,-8.5 6.14488,-16.75 2.98861,-8.25 8.61484,-23.55 12.50275,-34 3.88791,-10.45 7.07711,-19.90115 7.0871,-21.00255 0.01,-1.1014 -2.49369,-8.7514 -5.56376,-17 C 189.32477,217.45442 175,177.83379 175,177.33203 175,177.14941 180.15917,177 186.46482,177 c 13.40088,0 11.53417,-1.68199 17.92288,16.14937 2.43377,6.79284 8.10961,22.47563 12.61298,34.85063 7.34855,20.19341 8.0871,22.8588 7.20434,26 -1.06268,3.78139 -10.7097,30.81503 -23.8199,66.75 l -1.55054,4.25 -12.02428,0 c -11.05591,0 -11.96701,-0.14094 -11.31321,-1.75 z M 209,324.64305 c 0,-0.5226 9.95017,-28.05946 18.63423,-51.56979 5.06062,-13.70058 7.37387,-21.28277 7.02514,-23.02641 -0.28596,-1.42982 -4.06936,-12.26279 -8.40756,-24.07326 C 214.67399,194.45365 209,178.59253 209,177.74774 209,177.33648 214.18465,177 220.52144,177 c 11.00075,0 11.56426,0.10168 12.46894,2.25 1.18506,2.81409 10.01336,27.15831 19.12952,52.75 l 6.9462,19.5 -4.69027,13 c -2.57964,7.15 -8.44452,23.22349 -13.03305,35.71888 C 236.75425,312.71426 233,323.40176 233,323.96888 233,324.61976 228.57482,325 221,325 c -6.6,0 -12,-0.16063 -12,-0.35695 z M 38.256133,151.25842 C 36.479833,144.24129 30.748806,122.075 25.520519,102 20.292231,81.925 12.645702,52.45 8.5282322,36.5 4.4107624,20.55 0.75500657,6.4875 0.40433037,5.25 L -0.23326273,3 40.383369,3 C 62.722516,3 81,3.2193749 81,3.4874997 c 0,0.2681249 1.127074,4.825372 2.504609,10.1272163 1.935334,7.448693 10.932846,48.629016 16.110209,73.734121 0.849632,4.119897 1.914832,2.230347 3.860872,-6.848837 0.94311,-4.4 5.27694,-23.075 9.63074,-41.5 4.3538,-18.425 8.14453,-34.5125 8.42384,-35.75 L 122.0381,1 l 54.5057,0 54.5057,0 0.93509,2.459459 C 232.8916,5.8450951 244.12766,61.81195 247.55184,81 c 0.93242,5.225 2.00371,10.077911 2.38065,10.784246 C 250.54537,92.932703 258.21984,65.220164 270.36567,18 L 274.60975,1.5 305.30487,1.2355481 C 322.18719,1.0900996 336,1.3113907 336,1.7273062 336,2.1432217 331.70737,19.812225 326.46082,40.991758 321.21428,62.171291 312.40827,97.725 306.89191,120 c -5.51636,22.275 -10.25405,41.2875 -10.52821,42.25 -0.46635,1.63721 -3.77856,1.75 -51.39254,1.75 l -50.89407,0 -1.01419,-3.7664 c -0.5578,-2.07151 -3.06505,-12.75901 -5.57166,-23.75 -8.73418,-38.297573 -13.71822,-57.992957 -15.02447,-59.372059 -1.10408,-1.165655 -1.46938,-0.764486 -2.27646,2.5 -2.2788,9.217262 -16.34604,68.598629 -17.97771,75.888459 l -1.79063,8 -54.468102,0.25842 -54.468099,0.25843 -3.229636,-12.75843 z M 315.46221,157.75 c 1.30492,-3.4375 3.82377,-9.625 5.59746,-13.75 1.77368,-4.125 6.56313,-15.6 10.64321,-25.5 7.21462,-17.50571 13.43607,-32.538691 32.28055,-78 5.01566,-12.1 10.74853,-25.9375 12.73972,-30.75 L 380.3435,1 432.11273,1 c 33.25986,0 51.9891,0.3557399 52.38416,0.9949758 C 485.09694,2.9658635 497.79469,38.96137 508.48631,70 c 5.77896,16.776784 20.5118,58.67008 27.91243,79.36989 2.53069,7.07844 4.60126,13.26594 4.60126,13.75 C 541,163.61433 520.21924,164 493.57765,164 l -47.42234,0 -3.1314,-10.25 c -1.72227,-5.6375 -3.48201,-11.375 -3.91053,-12.75 l -0.77914,-2.5 -26.62324,-0.26625 c -24.59436,-0.24596 -26.69282,-0.13165 -27.53625,1.5 -0.50216,0.97144 -2.38022,6.82875 -4.17347,13.01625 l -3.26045,11.25 -31.8256,0 -31.8256,0 2.37258,-6.25 z m 112.56436,-48.5 C 428.07641,107.84345 413.50187,63.044242 413,63.061307 c -0.36505,0.01241 -15.83348,37.815343 -18.83333,46.026313 -0.19263,0.52724 6.87799,0.91238 16.75,0.91238 9.39583,0 17.09529,-0.3375 17.1099,-0.75 z M 549,163.5538 c 0,-0.54295 8.32784,-21.65033 15.01399,-38.0538 11.03722,-27.078186 22.49574,-55.660457 26.50057,-66.103354 2.34196,-6.106844 4.75926,-12.039761 5.37177,-13.184258 C 596.49885,45.06789 597,43.876899 597,43.565741 597,43.254584 584.175,43 568.5,43 l -28.5,0 0,-21.521197 0,-21.5211962 38.75,0.0416830032 C 645.25379,0.0708273 719,1.2609982 719,2.2627481 719,3.2536491 708.81629,29.390666 680.02615,102.29114 676.16177,112.07627 673,120.28877 673,120.54114 673,120.79352 684.85,121 699.33333,121 c 14.48334,0 26.52084,0.18664 26.75,0.41474 0.22917,0.22811 0.28679,9.90311 0.12806,21.5 L 725.92278,164 637.46139,164 C 588.80762,164 549,163.79921 549,163.5538 z"
       id="path2822"
       style="fill:#e2011b" />
    <path
       d="M 69.763386,491.96719 C 55.859948,489.62608 44.638444,483.8762 34.920917,474.11396 23.390774,462.53076 16.773819,446.99726 15.110603,427.60866 11.840075,389.48311 26.639073,360.22125 55.688705,347.37413 65.151927,343.18904 74.161234,341.69885 90,341.69885 c 15.00176,0 23.05179,1.21674 35.75,5.4035 l 6.25,2.06071 0,8.91847 c 0,4.90516 -0.2462,8.91847 -0.5471,8.91847 -0.30091,0 -3.90326,-1.84197 -8.00523,-4.09326 C 105.08523,352.82885 84.926549,351.29724 69,358.76993 57.410953,364.20747 47.002887,378.71082 43.358963,394.5 c -2.713088,11.75585 -2.454791,37.9423 0.481488,48.81395 5.740604,21.25474 19.128847,34.3319 37.922148,37.04103 8.739948,1.2599 18.034541,-0.0483 25.040141,-3.5243 L 111.5,474.5 l 0,-32.25062 0,-32.25061 12.5,0.001 12.5,10e-4 -0.16011,36.74961 -0.16012,36.74962 -13.30374,3.7626 c -7.31707,2.06944 -16.02002,4.20354 -19.33989,4.74245 -7.026014,1.14053 -26.906893,1.11824 -33.772754,-0.0379 z M 320,491.43992 c -19.37691,-4.17669 -33.2354,-17.39509 -37.49532,-35.76349 -1.19183,-5.13908 -1.48072,-16.37483 -1.52365,-59.25893 l -0.053,-52.9175 12.78598,-0.27719 12.78597,-0.27718 0,55.79866 0,55.79866 3.28675,6.67589 c 3.93868,8.00005 10.11157,13.79586 18.06616,16.96255 7.87989,3.13696 27.06337,3.2266 34.74116,0.16233 C 374.34718,473.65298 381.0241,466.44095 384.66869,454.5 386.3448,449.0085 386.5,444.0294 386.5,395.75 l 0,-52.75 5.81123,0 5.81124,0 -0.35852,55.25 c -0.38539,59.39263 -0.3645,59.14217 -5.82721,69.86793 -3.394,6.66396 -11.67844,14.65663 -18.6309,17.97473 -13.22619,6.31228 -37.52203,8.74947 -53.30584,5.34726 z m -154.5,-74.52958 0,-74.08966 28,0.389 c 25.90886,0.35995 28.47467,0.55681 34.3558,2.63593 19.19035,6.78425 28.91873,20.64897 27.9325,39.80892 -0.92645,17.99858 -11.00977,28.93043 -31.2883,33.92127 -3.85,0.94755 -7.15405,1.84718 -7.34234,1.99918 -0.41246,0.33298 47.01788,62.75744 50.65994,66.67502 L 270.37418,491 254.43709,490.9856 238.5,490.9712 236,486.49741 c -1.375,-2.46058 -11.95,-17.49062 -23.5,-33.40008 l -21,-28.9263 -0.2633,33.41447 -0.2633,33.41448 -12.7367,0 -12.7367,0 0,-74.08966 z m 45.27437,-4.43598 c 11.45273,-3.40109 18.86702,-12.80887 19.91129,-25.26486 1.11339,-13.28056 -4.43262,-24.33163 -14.81829,-29.52718 -4.91559,-2.45908 -6.88823,-2.84088 -15.4999,-3 L 190.5,354.5 l -0.26488,29.75 -0.26488,29.75 7.83338,0 c 4.30836,0 10.1452,-0.68654 12.97075,-1.52564 z M 429,416.90111 l 0,-74.09889 29.75,0.4292 c 26.61634,0.38398 30.40456,0.64551 35.9642,2.48288 21.20975,7.00948 31.75865,24.04655 28.29882,45.70421 -2.7617,17.28754 -14.1101,28.61359 -33.69907,33.6327 -4.85569,1.24413 -13.04349,2.24128 -21.62723,2.63388 l -13.81329,0.63177 0.31329,31.34229 0.31328,31.34229 -12.75,-7.2e-4 L 429,491 l 0,-74.09889 z m 49.61218,-2.37858 c 6.63976,-1.9718 12.6477,-7.31508 16.07687,-14.29828 C 497.2013,395.10827 497.5,393.43738 497.5,384.5 c 0,-8.90646 -0.30342,-10.61787 -2.7747,-15.65015 C 489.55823,358.32807 482.50527,355 465.37427,355 L 454,355 l 0,30.5 0,30.5 9.8185,0 c 5.74943,0 11.88035,-0.61231 14.79368,-1.47747 z m 64.15056,2.37884 0.26275,-74.09887 29.73725,0.42905 c 26.60366,0.38385 30.39209,0.64547 35.95146,2.48275 22.12622,7.31236 32.60299,25.59197 27.80661,48.51627 -1.71317,8.18809 -3.18031,11.06217 -8.88702,17.4094 -9.07156,10.08976 -23.14139,15.00206 -45.95792,16.04561 l -13.82413,0.63227 0.32413,31.34173 0.32413,31.34172 -13,-5.3e-4 -13,-5.4e-4 0.26274,-74.09886 z m 50.11535,-2.45781 c 6.68108,-1.98407 12.28229,-7.03403 15.84213,-14.28302 2.47702,-5.04402 2.77978,-6.74969 2.77978,-15.66054 0,-8.95133 -0.29652,-10.60386 -2.82761,-15.75831 C 603.5023,358.21305 596.65188,355 579.37427,355 L 568,355 l 0,30.5 0,30.5 9.8185,0 c 5.97421,0 11.87057,-0.6094 15.05959,-1.55644 z M 657,417 l 0,-74 38,0 38,0 0,6 0,6 -25,0 -25,0 0,27.5 0,27.5 25,0 25,0 0,5.5 0,5.5 -25,0 -25,0 0,29.07694 0,29.07694 25.0008,-0.32694 25.00079,-0.32694 -7.9e-4,6.25 -8e-4,6.25 -38,0 -38,0 0,-74 z M 279.37564,324.63948 c 0.32584,-1.29828 1.74251,-9.96078 3.14814,-19.25 C 283.92942,296.10027 287.3273,274.55 290.07464,257.5 297.86358,209.16181 301,188.0167 301,183.84349 L 301,180 l 11.25,0.0194 11.25,0.0194 4.69805,14.73064 c 2.58393,8.10184 10.61382,31.83063 17.84419,52.73063 7.23037,20.9 14.0955,40.8125 15.25584,44.25 1.16033,3.4375 2.3762,6.25 2.70192,6.25 0.32572,0 1.54314,-2.8125 2.70537,-6.25 1.16223,-3.4375 7.34923,-21.325 13.74889,-39.75 C 397.72997,202.26221 404,183.53421 404,181.67105 404,180.2077 405.41222,180 415.36207,180 l 11.36207,0 0.65973,7.25 c 0.36286,3.9875 1.99292,16.25 3.62238,27.25 1.62945,11 5.90973,40.4299 9.51174,65.39978 3.60202,24.96988 6.78558,45.78238 7.07458,46.25 C 447.88158,326.6174 442.3477,327 435.29507,327 l -12.82297,0 -5.21422,-36.75 c -2.86783,-20.2125 -6.43691,-45.86464 -7.9313,-57.00476 -1.49438,-11.14012 -3.03815,-19.91512 -3.4306,-19.5 -0.39244,0.41512 -4.40499,11.55476 -8.91676,24.75476 -15.36776,44.9611 -26.76,77.99455 -27.87068,80.8151 -0.6097,1.5483 -1.10854,3.9108 -1.10854,5.25 0,2.42193 -0.0548,2.4349 -10.27774,2.4349 l -10.27774,0 -3.62406,-10.75 c -1.99324,-5.9125 -7.22966,-21.1 -11.63649,-33.75 -4.40683,-12.65 -11.26399,-32.45 -15.23813,-44 -3.97414,-11.55 -7.52717,-21.34194 -7.89563,-21.75986 -0.72094,-0.81772 -3.07642,12.9419 -11.59966,67.75986 -2.99304,19.25 -5.44384,36.6875 -5.44622,38.75 L 292,327 l -6.60841,0 c -6.44549,0 -6.5938,-0.0582 -6.01595,-2.36052 z M 470.5,253.5 l 0,-73.5 38.25,0 38.25,0 8.8e-4,5.75 8.7e-4,5.75 -26.0168,-0.31158 -26.0168,-0.31157 0.26592,27.81157 L 495.5,246.5 l 25.5,0.16865 25.5,0.16865 0,5.33135 0,5.33135 -25.75,0.26688 -25.75,0.26688 0,28.51386 0,28.51386 25.75,-0.0996 25.75,-0.0996 0.29772,6.06889 0.29771,6.06889 -38.29771,0 -38.29772,0 0,-73.5 z m 102.5,-0.0955 0,-73.59551 31.25,0.46273 c 27.86991,0.41268 32.10189,0.6934 39.12597,2.59535 14.22276,3.85118 27.21388,11.88884 34.88099,21.58104 11.70101,14.79154 17.55471,38.1442 14.81388,59.09827 -1.48989,11.39053 -6.55239,26.32742 -11.39638,33.625 -5.04588,7.60173 -16.05286,17.8239 -23.94429,22.23705 C 645.61812,326.18185 639.86423,327 604.34004,327 L 573,327 l 0,-73.59552 z m 51.58324,60.613 c 11.55305,-1.5018 18.04899,-4.47541 25.0433,-11.46392 6.8371,-6.83142 11.24398,-14.67742 14.44898,-25.72493 2.94329,-10.14538 3.72802,-31.42335 1.53917,-41.73457 -4.31244,-20.31503 -16.87466,-34.75452 -35.07316,-40.31443 -5.5257,-1.68818 -9.73241,-2.1651 -19.54153,-2.21546 l -12.5,-0.0642 -0.25941,60 c -0.14267,33 -0.0443,60.5625 0.21862,61.25 0.57756,1.51029 15.3962,1.66202 26.12403,0.26748 z M 719.5,253.5 l 0,-73.5 13,0 13,0 0,73.5 0,73.5 -13,0 -13,0 0,-73.5 z m 60,-1e-4 0,-73.5 37.75,5e-5 37.75,5e-5 8.7e-4,5.75 8.7e-4,5.75 -25.50087,-0.2981 L 804,190.90379 804,219 l 0,28.09621 25.50087,-0.29811 25.50087,-0.2981 -8.7e-4,5.75 L 855,258 l -25.5,0 -25.5,0 0,28.53292 0,28.53293 25.50072,-0.28293 25.50073,-0.28292 -7.3e-4,6.25 L 855,327 l -37.75,-5e-5 -37.75,-6e-5 0,-73.49999 z m 102,1e-4 0,-73.5 11.58948,0 c 11.04733,0 11.6376,0.10526 12.61796,2.25 0.56566,1.2375 8.14622,12.15 16.84569,24.25 8.69947,12.1 18.54639,25.8618 21.88204,30.58179 22.45432,31.77306 42.18366,58.89215 42.85318,58.90412 0.43359,0.008 0.65859,-26.08607 0.5,-57.98626 L 987.5,179.99931 l 6,3.4e-4 6,3.5e-4 0,73.5 0,73.5 -10.71482,0 c -9.65148,0 -10.81986,-0.19629 -11.77336,-1.97792 C 976.14168,323.39621 947.85396,283.6547 924.32345,251 c -2.97242,-4.125 -10.89868,-15.24504 -17.61392,-24.71119 -6.71524,-9.46616 -12.56403,-17.22866 -12.9973,-17.25 -0.43327,-0.0214 -0.65827,26.51134 -0.5,58.96153 l 0.28777,59.00034 -6,-3.4e-4 -6,-3.4e-4 0,-73.5 z"
       id="path2820"
       style="fill:#1b191d" />
  </g>
</svg>
